<mxfile host="app.diagrams.net" modified="2024-05-25T13:41:34.357Z" agent="Mozilla/5.0 (X11; Linux x86_64; rv:126.0) Gecko/20100101 Firefox/126.0" etag="3ONcCiERVLhWsRh5pMzn" version="24.4.8" type="github">
  <diagram id="C5RBs43oDa-KdzZeNtuy" name="Page-1">
    <mxGraphModel dx="2257" dy="818" grid="1" gridSize="10" guides="1" tooltips="1" connect="1" arrows="1" fold="1" page="1" pageScale="1" pageWidth="827" pageHeight="1169" math="0" shadow="0">
      <root>
        <mxCell id="WIyWlLk6GJQsqaUBKTNV-0" />
        <mxCell id="WIyWlLk6GJQsqaUBKTNV-1" parent="WIyWlLk6GJQsqaUBKTNV-0" />
        <mxCell id="5xJ9NXd-1yU2UvSExa06-0" value="Get A Letter" style="rounded=0;whiteSpace=wrap;html=1;" parent="WIyWlLk6GJQsqaUBKTNV-1" vertex="1">
          <mxGeometry x="294" y="220" width="120" height="60" as="geometry" />
        </mxCell>
        <mxCell id="5xJ9NXd-1yU2UvSExa06-2" value="&lt;div&gt;Letter&amp;nbsp;&lt;/div&gt;&lt;div&gt;Width: 4(with space )&lt;/div&gt;&lt;div&gt;Height: 5&lt;br&gt;&lt;/div&gt;" style="rounded=0;whiteSpace=wrap;html=1;" parent="WIyWlLk6GJQsqaUBKTNV-1" vertex="1">
          <mxGeometry x="40" y="10" width="170" height="60" as="geometry" />
        </mxCell>
        <mxCell id="5xJ9NXd-1yU2UvSExa06-4" value="Copy each letter in array" style="rounded=0;whiteSpace=wrap;html=1;" parent="WIyWlLk6GJQsqaUBKTNV-1" vertex="1">
          <mxGeometry x="40" y="150" width="240" height="60" as="geometry" />
        </mxCell>
        <mxCell id="5xJ9NXd-1yU2UvSExa06-5" value="0 ---&amp;gt; 4 represent A letter" style="rounded=0;whiteSpace=wrap;html=1;" parent="WIyWlLk6GJQsqaUBKTNV-1" vertex="1">
          <mxGeometry x="480" y="240" width="120" height="60" as="geometry" />
        </mxCell>
        <mxCell id="5xJ9NXd-1yU2UvSExa06-6" value="ARRAY result&lt;br&gt;&lt;div&gt;FOR i= 0 TO i&amp;lt; 3&lt;/div&gt;&lt;div&gt;&lt;br&gt;&lt;/div&gt;" style="rounded=0;whiteSpace=wrap;html=1;fillColor=#d5e8d4;strokeColor=#82b366;" parent="WIyWlLk6GJQsqaUBKTNV-1" vertex="1">
          <mxGeometry x="330" y="380" width="470" height="270" as="geometry" />
        </mxCell>
        <mxCell id="5xJ9NXd-1yU2UvSExa06-12" style="edgeStyle=orthogonalEdgeStyle;rounded=0;orthogonalLoop=1;jettySize=auto;html=1;" parent="WIyWlLk6GJQsqaUBKTNV-1" target="5xJ9NXd-1yU2UvSExa06-6" edge="1">
          <mxGeometry relative="1" as="geometry">
            <mxPoint x="695" y="450" as="sourcePoint" />
          </mxGeometry>
        </mxCell>
        <mxCell id="5xJ9NXd-1yU2UvSExa06-13" value="&lt;div&gt;ARRAY[0]= A&lt;/div&gt;&lt;div&gt;ARRAY[1]= B&lt;/div&gt;&lt;div&gt;ARRAY[2]= C&lt;/div&gt;&lt;div&gt;ARRAY[3] =D&lt;/div&gt;&lt;div&gt;ARRAY[4]=E&lt;br&gt;&lt;/div&gt;" style="rounded=0;whiteSpace=wrap;html=1;" parent="WIyWlLk6GJQsqaUBKTNV-1" vertex="1">
          <mxGeometry x="-30" y="440" width="330" height="190" as="geometry" />
        </mxCell>
        <mxCell id="5xJ9NXd-1yU2UvSExa06-14" value="&lt;img alt=&quot;&quot; src=&quot;data:image/png;base64,iVBORw0KGgoAAAANSUhEUgAAAv0AAABJCAYAAACuApleAAAACXBIWXMAAA7DAAAOwwHHb6hkAAAAGXRFWHRTb2Z0d2FyZQB3d3cuaW5rc2NhcGUub3Jnm+48GgAAIABJREFUeJzsnXe4HkX1xz/npvfeQzrpvRACSUiAQOjNANKld5AugiAdUVSaIAgIFgwiShVDlyIQeg2Q3ggplAAhBeb3xzlzd9/l3i1vif7y7Pd57pPJO3vO7O5898yZOWd3cM5R2x8wB2gB7AncHnds2j/gROCnVv4QaBOq2wH4s5UfAsaVo82E8/krMBnYDHgjUncpcIyVVwGSUudWwP1Wng5MCdW1AWZZ+RLghDJdx+3AbkArYE6k7lzgdCsvAxqE6r4H3GTlZ4BBKdtrCCyy8jnA2ZH6eUBTYG/g1kjdv4CRwGDgmTJd/1Tgj1b+JzA2VNcLeMnK1wAHZ9D7FtDRuPmXDHJXAEcBAqzKIDce+EeIm9uF6toD71r5MuC4iOxyoA5wGPDLMt3X84EfhvTXC9XtC9xg5eeB/il1NgYWWvnHwJkZzudRYDgwFHgqg9wPgfOtPB9oXo77k9Dmu9ZnUzG7llLuZ8Dhxp1PMshNBP5m5XuBSaG6jsDbIW4eHZFdAVQBRwC/KNP1XwCcHNJftww6mwLzQ9w8LVK/GGgE7IfZtQr38W7Y2Ag8Bowsk95Z6Fixi7drobr70TFmc2/XKnyNXbCxEbgKODJSv9y4ehTwswx6/2x2tZO3a6G6nwInWnklUCdUdyBwjZVfAvqkbK8FNjYCFwKnZjjXp4BBwCjgsQxyZwLnhLjZOKXcAGxsBG4C9s3Q5oeoH7AbcEcGuV8Ch6BjyPIMctthY6Nxc+sMsivt32OBKzLI/cXa7eLtWkq5Q7CxEXgF6JlSrhXwYYibJ0fqPwLqAQcB10XqnrH+HAP8K8O5noONjcBSoGGobm/gZis/DQwJ1Q3CxkbgZmCfsN4qaoGICNDCOfcZ0BlYVNuxGdHZLgD0Rq6K1C2xchf0Iak0ulibXfjuNXYBlohIK3TwdSl1xl1Hl5i6UhB3HZ3R66gPfOucWxup8/2R5XxqlTPuNHXOfUHN3OlisuXmVW33tRRedUAHtc4Z5Xx/tEEdnrQo6jpEpDHwtXPumxrkSoHnTiNgvXNufajO92NN55qoM1Qu5r5mlfPXUYVy8/MMssWiHdr3NT2TcfD3tR06Sc8iVwx3mgJfOue+Jft9jUNnYGmImxvKpLNG7ohIHXRSuiZaV0FUasxqg46NtdnPJbXUVQJx3GkBrLaxsZRnubaxtxnwhdm18PksDZWXkA6l2p1ixix/HZ6bX6WUK4VXrZxzn1Cc3VmCLhB8lEGuqHP1flVIx8bojyh3lsYcG5Wr7RmoDzgbG2u6jjjfLPFcRaQeUOWc+zrN+RA/DlDbDONIdKV2HTAb7ZjlwMNpZyk16BTT9Tl6o+eG9I9HV0lW2t9sYAMaaTik2DYTzmectbPezuUjO7fZ6Kr/bOAr66SFwBr7rW+C3vvRgX5VRP+x6CrzUmB1RP+VJVzHMNO11vpsSUi/v44v7Pf5dtxsdLX0hVDf+ns+G9groc0rjEhfRvRfBxxdC3ceAKZE+vZj4FMyzNRrOZ8njDcrIvoPAm61vv3M6tYAC7BV3xidB5mO9Sbn9T+RINc5hjuxK1J2j2riztF2b2vizuXA6XZNX1vdZ6izeFcJ97Sl6frS+jqsfxgw0/r2Y7tPnjt7JOi9shbu/DpBbmot3HkrQa6eya22+xfmZkUiiehq0twQd1ZZv8auEAJdQ3270P6+st96Jcg+bG14++m5cyRwQy3cuRRdiayJO38q4fpbxXBncAl6f25c+SKi/5fA8da33r55bv69En1s5/PvUN+GublfCToPq4U7/wK2CfXtHOunz7AVyApd443GHT82rjFeXgycbX3r7dtnqK39Q4LOMXb8OuuzMDf9mFUTdwYCr6LPfdTu7JLQ5tW1cOfqBLldQn07Gx3LPgFeTZBrRO1j75gE2T9Y335qx39t8mclyB1OoV+1ys73kQS5HpG+XURgdzZLkJ1Bod/muXlYgtyPKBwbPzfuxEYmgC1C3Jkb4WaDBNk37J4ui3BnpwS5X9bCnauAUyJ967l5D7B7Ldx5OaG9JjHcGYlG1Wvy276HRs/82Oj9wvmEoulxDQ8hCBH8jgRHMIMR+Rf60A8C/h2puw4N3dUHPipHewnnIgThpROBiyL1b6NO3A5kcKBQp/iYsP7Ig/nzEAm7lulaVhCkdlwdqXsB6IuGhB+I1N2BhgHbAB9kaG9f4EYrP0cotQOdUDxu5dsIOYKoMVxs5XPJkNqRcD43AN8HGgBLInWnAhdYeR4pUzuAPsCLVr4WOCDD+byLrphMJYMDhaZ2+LSgKHeOxMLnaNpR51DdRMzBAf5GKLWjxPv6kt2H8cB9kbo/AjujKSzvZdC5P0Fa0H9ImEiH5JoCC6z8ndSOBNknjJfV3Kzknz1v/wlxc/8MsrPsnu5MggMVkfuF2ZcqYEWk7hjgciu/A3QI1U0iSAv6OzCxTPfgZTS1rpqbZdB5IHBtiJu9Q3WjsfA56jjtvBH6+WZ0sK3mZhl09gees/KNhFI7gLrAx1Y+HThvI1zjccClIW62C9VtB9xt5aypHavMzlVzM1T3GtAdTb29J1I3HV1A6gy8maG9g7HFBeNm2tSOlhSmBZ2coc1nUF9nDAnOd0TubIK0oCWEUjsS5Kr9KmpI7UiQnYNO2PcAbssgd43d27rAsgxyUwjSgh4k5SIMhX5bNTdTyv7VOLsZ8HoGuUMJ0oJeBbqH6sYBD1r5L3w3nfsDK19MhnRu1K8aAIwlsuCOpnPvYf01O1JX7VehE5z64fpa03soDBFkCaElIRzSi+r0dZ1IH3YpBT78Ti1tdkBvWtbz8dfRmsL0JV/ndWUNo9UIS71Y6zQEWlPIyt/rTtR+z7P2cfg6orJJdf7/NZ1PsQhfR/T6fYhVgGYufWpH3HUkIZwWlPW+LgHa8t20oPD5eG5G5Yo516Tz8WHUqE7/Wzm5kyRXLHeK5XmxKKU/fN9nlfPHt0dXe6J1/p63R7lZjnNNOp/auFMsotxZGqmrxHUknU+5eRV3HZ0Ixoxy2s84hO9z1C4Vdc8tteNTp55JTeOrv84ku5N1XPbHZxnTS+FVKTZyiYjURd+F+TpJICwXaTsRNja2dJoWVOw1dqT4dMQsbbYmSAvK6puVY8wKP4O+rrbrKIU7cbYl7jrC6dzOObeuoLaWGcZtaOhkGRrG/xJ4k8gLPFn+0NnVTDQs8wpBiP4J9IWkmWiI7210lfQz+611sW0mnM/Z1tZqa8eHSn6OrkS+bOc6kyDkdXeCzi52/Gd2DW+hIZqZVveC3dO5Ef1blXAdJ6ERg69Ml9d/AxpeehkNuc1EwzxL0TSS4fbbVyY/C52gzCQyM6yhzSdMz3w73uvfHp2BRrnzBroCeRHwHhp6mmntvQ9cWML19zVdX9j9DnOno/27An256VU0VDoTGJqg9zcEIbkwN09MkDvA+O37dpH9xUaK0JWHMHfC3OwMvEgQ0g5zZ0t09WIB+vDPtGt8ldLSDPaMcMfrvw8NMc5EQ7OvWx967tRL0PtUiDth/ZMT5C6ugTuzsAhOjNyOIY6+HOLmjErYFWvzpgh3PDePT5A7qAbuLCThJWB0RXQmGuZ+J8Id/wx47oT1b4FGhRai4eqZaDj4VeB7JVz/3rVwp6TVfvSFtY/QaF1Y/yR0ZX+e1Xu79jqVSw8dSOHYGOZm0xL03kwwNoa5cyxwnvXv5wR27QPgsgpdYxWFY2OYO2PQqFBN3IldXUYjFOGx0XPzl2jUJMqdxeiL6WMI7M5rdu0r7bfYj2wAz9bCndioFpo+OQt1Mn1K43vAjxPkdqFwbPTc/GeCXHMKx8bX7XpnAgMSZH8X4Y7n5tEJcodZv601OZ9WdWeCXC8Kx8YwN9smyN5HMDZ67rwC7Jkgd0YN3JlNcprWlgRjo+fOClK8CI+uuIf9Nt+n44G7CPyqMDcPQKP2Yb/qU+POjxLa2y3CHa//IfQDFlG/zXOzUw3c8X5hv2r9MQ2fB5xh5YKvdpRgRBphqRdoCOKsSP1CoBn64N9SanspzmdnLPUCSzsK1fUGZlr5OuDADHrftQ6YSsTZQw3lNkBP4JUyXcdELPUCHcQnh+o6YKkXWNpRRHYlmhZ0OBm+2oEOsrugq4bvR+p+QvDFl4KvdqATKp8W9EKYjCXeg8VoiH1fIl/tQCcpI9CJzpMZdJ5G8MWXhaQczNGJiE8L+g3w/QxtzrI+25mav9oxAU23mRmp+wX65ZUqImlBJdzTzsA7Vr4KOCpSv8raOxK4KoPePwM7oQ5plrSgA4DrrZzlqx3NCdKCLvDcrOQfmiv/YysvAZqklOsPPG/lm8gwcUMHsrbooHFnpO5BNL2vL/BCpO6XwA/MDqxI217CuXTFUi88N8uk9y9oumVnIu8CoRPDk8Lc3Aj9vAz9ktmBnptl0Hk25higg32jUN1eWOoFOgmKXbwo0/n8E3WaBnhuhup+jb7DUp12lFLnFIK0oIcILXyhk9jXQ9w8LCK7yv49jgwTHnRxZHt0gSVLWtChwK+s/BrQI6VcGyz1wrgZu2AUkX0OnViOJVtaULVfReRLfQlyQwjSgm4F9s7Q5jz0y0h7EflSX4LcdehCR32ypQXtiPlVnpsp5aq/hoamc1+Soc2/AdsaN1+L1F2BTsq/87U11K+62spvkPCOREiuHUFa0GVEFowwvwqdsP0qUvcfoB+advRQVHdcek8n9M3hBsA3rvCrHcUiHI4rCMvYVzWaOOdWs/FCs9G3+ZfWUpc1hOTD67WFXsod8i7qOuyrGmtc7WlBSW3Wdh2eO42Ada7wqx21cqBYGHcauOBrQTWFiou55/46PDe/SClXCnfaUXtaUNx1+Lpo6kYpiONOc/SrGv6LL1musdj+KJY7pfRHsfDcqYNy88uUctFzzXJ/2qCT+GK504HvpgUVi1KuIw5J17Ekws2Kwb6qIU5TL7I+A3Hw11GX4GtEHv81LhPPnaypHXHXUet4JiKlpHaUw+5kScmNG5eTUOqYVQ/AFX6pLw5F8crSgpq74CuPmc+V76bLJKFY2xJOTSuGO7Wl03hdNaVzR8estM9I3Njrv6S3gWL8nZiZxmD0JtWnhPSTiM5mwCgrD6LwhaA6wAQr9yT0okSl/tBZW08rT6DwW8BtsW/Wo+kMzTLonWT/diPy1Q10ta2+6S/6SxYRnV2xVU+vP1TXChhm5WHo57x8XQPs5Rk0xapLhjbHopGbav2huiGoA1KtP1TXC+gWvk9luP66wPio/lD9RHRFuiMpvyVvcgNQJ7qO159Srl2IO6PScgddKdgmys1Q/dbo12iq9YfqRqCrLU1I+DpEhutoja0kolGSlqG6htgKC7p63DmD3lq5kyDXG1spycIduy8jwtwsx/1JaHOgcaeamynl2gMDrTya9NGlKixVAf0aR4//MnfaYN+O9vrLpHdL4141N0N1Q+33am5WuI/rYS+uhrlZBr2DrJ+q9YfqqsdGNGKcau+YEs9nvPG4mpuhupFoJK0pMDqDzs2wl7A9N9Nwx+zGWCv3AzplaHMcOiZV608p1wcbGzPanZbA8DA3M8hOsn87k/JDB0ncSZDrgKUPoWlUaSOTRfttJXCn2q/y3Ewp1xjYwsr9gY4ZuVPfuDM4UjcMHcuquRmqq/arMnKnaL8tiTtilTly5MiRI0eOHDly5NhEEZfekyNHjhw5cuTIkSNHjk0AudOfI0eOHDly5MiRI8cmjtzpz5EjR44cOXLkyJFjE0fu9OfIkSNHjhw5cuTIsYkjd/pz5MiRI0eOHDly5NjEkTv9OXLkyJEjR44cOXJs4qh2+kXkjyLSUURGicgv0ioQkWNFZJqVH7fNGtLIDRKRa618qYhsnaHNR0SkrohMFZGzM8idLyKTRaSJiDyYVq5Y2Dn+y8oHi8gRGWSvsXvUQ0RuzyA3TUSOs/K9ItIy84lnhIj8WUQ6iMgYEblqI7Q3RER+beXLRWTcRmjzAhGZKCLNROT+DHKTReQ8K98sIn3KdD73G48ni8gF5dBZwrl0FpE/WPkMEdk1g+xfRKSdiIwVkSszyJ0oIntb+YkMckNF5JdWvkJExqaVLRYicqGITBCR5iLyj0jd4SJyoJVn2IZMvm57ETnXyreKSK+U7TUQkYetfJiIHJrhXG8Qkf4i0kdEbskgt7+IHGXl+0WkWUq5riJyh5XPEpGdM7R5t4i0EZFxInJ5BrmTRGRPK2fhzgg/NorIVSIyJoPso6LYTUROyyB3sYhsLSKtROTeDHJTROQcK98mIj1SyjXyY6OIHCEiB6dtsxIQkfEi8lMr3yAiA8qk9692T7cSkUszyJ0qIrtbX2bhzkg/NorIz0VkVAbZx6y9PUXk1Axyl9iz0VpE7skgN1VEzrLyHSLSLaVcYz82isiR3q6llL3JbE4/Ebkxg9xBIvIDKz8kunFVGrnuInKrlX8kIjukbbNYiMgPRWRXEakSkccq3Z61+Zj9u5eInAKFK/2TgU/RjXZS3TjDKOBbEWmCbhCV9sP/fdBNGUA3lEq1Y6UNisOd7kY2CN2EIi22BL5GN7Nqk0GuWHREN70A3dwoy6YIE4DV6IYXzTPIDSXo14nA5xlki8VkdJfErNwpFkVxp0QUy52B6KYeENynkiAigm6Y9yW6gVj9BJFKozu6EQ3oxi5pd4GE4J70QzdVSotRwAYRaWXtp8Xm6CZUoBu7pN1luRRsBaxBNyRqHakbATjRHTSHuMLdq8PcmUR67nRGN+jx+rPsTOttRi90M8W0GIZSU9BNgVanlOtBwJ0tyMadSeiYlZU7Y1DutEGf57QIc2drUnLHHJH+NjYOQTc0Sotx1M6dOAyi0O5EdwqtDV0onjuVQH+Cvp0IfFYmvZNMV390s6O0GA2sR+9R5wxyfdHNoUDtTqrnw/yqzYvkzlbAV+hmVqVwJ63d6UrAnZFk484ktD96E4ztaTAcQESq0I2x1iQc79ET3ZAQgrG90tgC5U57dNfcikJ0Z/Le9t+wX8guwAxgnf37LjAX+EPCjmFt7fiPgJeBp1EizyCyk2gNsjcAbwHz7fjPgX8D30+QOxR4EiXyDGAO8B7w6wS5fnb8J8BzwAvodswz0C2kU+2SluUPOA143tqcASwGXgd+kiC3lR3/FfAE8JrJPpggV2VyC4A3gUfRAXQGMLJC17hbDdyZA9xRifaszRuBt0PcWW3c2a9C7fW3dj4FngVeDHEndrdU4K/Ah8D7ofv0KLB9CeezP/AYaqRmAB+Y/hsrdc8Tzudy4BV02+8Zdm9eAI5NkNsjwp33gNnA7xPkOtjxHwMzgWfMfswgYUdU4LfGnXkh7jwNTKvQvRlo7Xxm3HkJWG6/dbR/lwCvml370n7rC9xj3JkVuU/bJrR5FvAfYGVE/7kJchPs+K+Bx4E3gEXAfQly9U1uocmEuRm72zJwpZ3bEjt+pZ37MQlye0buySzjzm0Jcp1C3HnJuPOZ/dY1QfYW4J0Qd74w7uyTIHekHfeFyc0zPT9PkBsc4s4zdr4f228NE2TvtfvxXuQ+TUqQOxt9dj13llr//KgSz0eK5+fPqG37MMLNnUrQuU8N3PkQ+F2CXGc7frn1xbMh7sTuRg7cSuBXzUCf86eAvRPkjqbQr5qH2q8rE+SGEvhVz6B20nOnQYLsPwj8qhmokzoD2yk+Ru5HFPpVS9Fx4awEucl2/Fp0bHwTtSX3Jsg1otCvegKdHM8gsuN4DbI/J/CrZqAT4ueBIyrE464EY+OLxp1P7bfUuwJnbPMY1C/y3Jlv3LkCdJY7CDVErYBrgZNI2DYddTJboYZ+KOoA3m+/1UmQbQ5chQ5QreymtybZmDUCtkcHllaoU/U9oFmCXF07/mPUaTgKuNl+q8g25uis/iDgD9bOs+jqUOz21mjkoj1qXFoB5wMXAy1TtNnKHpwpwFgjWCtCW5yX+RoboKsPb1o7NwDHJ3GnxDabA78ATrc2P0nDnRLa89xZbv1yDHBTGu6gK5h/BA5EVzTnmVz9Es6nIToxfM503QkcTIUmrynOpynqLPzMzmceuorSKAV3hqEGuxU6mTs2g915B3Wq9wL+nsHu/BL4YYg7rTYCd1agiyTHA7+x3/x1vISuPE9BjXMrdDWvJer0fB9ddZ+ThjvoSvRhwO12/AtmC5LsTn3UKV5qchcBP0myO4DY8U+iq3VbobauFVA3BXd+hA5ErdAFi+4puTMCdUhboZO5o5OegdA9fw+dzO+DTq7ScufXwCmovVmVhjvomLUz8JAdfz86VqYds1aikcUTgetJb3emA/ui0YkPM3DnCNRJDXMzljuV+kNXYm8DDked7iV2XrGOa4LOhuhq/UzT9Tu75rTc+QCdlE8D7rbfqlJw5zrUr2pjfZp4HcadXYEH7PgH0UXapMUmzx3vV50EXJOBO3+16+uHTorScudIdHLcCl0IHpXEHdTudEMd/VbAZcC5pLc7z6CRk23QiVQau9OMwK9qZbzqTILdKYFzdayd2ejK+/7AXWm4U0KbjdCFtfusnYeBnYCmVc65tdZhC51z3oH60DkXG0Zzzn1rx7dHZ+NNgfnOuU+cc98kyH5u7cxGZ5KrnXOrnHOxIRanoZtmwAJruw3wvksIJTsNmX+hRbcMNSbz7FyzpNykhnPuq3A7aNhrltOUjDi59ahhWmJyLYE5zrlPU7RZ3Q7apwvsGteXdjW1trcW7fdM3CmxzTB3vgU+TcOdEtrbgEZdvnHOfUwG7liftUUHisbAIpNbV8L5fM13n4EP7L5sdDjnviDg6Cfo4DnXJYRZi+VOyO60Q+1OM4L+yGJ3BFhpcpXkztfAOufcCpQ7c61Nfx0dUCe0GSH7adxpR0bumH1pSWB32gPvpbA766ydxVnsjlP4dmYR6lNXmKpUk2w1d9CVrybOufklcCf2GYhw5wPUGcvCnTYod6qAFWm4Y9fSHOtb1B6kHbPWAWuccysp5E4Wu9OIbNwJj1mpuFMpmC1og15HQ4yb1v/F6vya0rjTGp1EhbkTm8YSsjsfog75x2muI4Y7sWllxp1vML8KfcaycMfb1lLtThp/x9udRSbXCpidwe50ILA73t9JsjurrZ05aLSmnnNuSZLdKRZmz/21zaFwzKpI+lwt3JnluXMeGkJagK4OLEVX0g9y8TOJnez4dfbvy+jq2y8T5Nrb8YvQ1aEHUIM/HeiQIPsLdPX6fTv+E5PfOUHuADRstdrk3rHzPT9OrpQ/dIXiTXQlczo6+N8NjEuQOxH4FxqVmI6GBJ8FTkyQG2fHf4mGd59FCXZbBa/xfOPO/BB3HgUOqFB7HaydxWg47wHjwHSgfYXaPAidLX9u7bxr3DkvQW6AHb8SXeV7DF1RmE4JkRc0neZ51PmYjq4iPwzsWal+jjmXBnYOs+2c7kFDrNOBvgmyF6DhR8+dj9CV7v0T5HaN2J1X0bDlVQlynULceRxdNVtlv7Wr0P05xLjzmbXzHrrCeC4asQxfx0vo4HUtGnmdbuf3kJ3vYvstaUX6Drsfr9rxa+3fLRLkTrH7v8yOn2f9k5SmNd6OX2P977l5c4JcoxB3njPZr+y3PgmyF6IrfPPs+GWozYxN8QN2R22wvyevoWmmP0uQ62LHL7G+eAh9rqcDbRJkr0Htxbt2/OfGiR0S5A5FowJh7rwEnJMgN5hgbHwQtZOeO0mrvHeiY+MrEe6MrsTzkXAum1vby4FHCFKJp1PCiiwawXoWHVeno+PsI8C+CXJ71MCdN4ErEuQ2o9Cvehi12dOBVgmy11pfvGPHr0b9mNj0UDTSF/arZqF+09kJckPt+E9N/knUT/tLivv6x1q4E5tajKZBP2b3Zzrqhz4FHJ0gtw2BX/VXNC3wAxLSXFGHO+xX3YsuCE8nIS29BM7tZef4tbXzOpohc3kFn5/ra+DO34FtQQfDC+ygXqghHQ20TlDaAjX475rcrcCZJOfV1rXj3zP5g4B/2m+xzhCaG3U9GnbuhRrEXiSnBLRG04CesuMfRI1qpwre9B7W0ceiL5sstLaTwl3t0TSA6Xb8THSCFevUoiv7/VEj2QvNl/0Z0KOC19gJHYCvtTYXoGH3WO6U0F49a2cWmkZwiPVlLxJCeiW02RoNdT5h7TyMptPEcgddmeqFOm6b27Nxm/1WdEoZ6oD8AnX+vf6+pEj/qsC9ETuHZ9FBcSd0cOlFctpDJzS8+ms7fjGa7pPG7kxGB9xeqJN7Gsk52Z47H6Ivbh2GDmyV5E4bYD90ItwLdS4ORPP5m6Mvds22uhuBH6NOQiP77VP0pfWz0TSERO6Y3fk7mrIwGh3c0tqdk4E/2fGvoROT2AkRusI2GB20exk3LwO6J8hV2fHPo+kuu6IDdy+S0x46A5eiqVq9UGd8KMlOVEt00Hvd5P6ATnbScmeO9dnhqOOeyB3rz5uBc9DQ/qcml5RO0gZdrPqXHT8DTfWKzQGOcKc3mj51M9ArBV97ohONw9GUMM/NxpV4PhLOpYG1/TGaxncy6lj2ooSUCOPO5cbTXuhEYlBK7kxBJ9O97Dk5GeiSIFffjp9rz+ORqKPZi+QJ/GaoX3UWOoZ8koE7BxL4VY+hqV5pueNfqP0xmsqaljsPoH7VONQBT+QOupB3OvB7O/4tNE2wbYJcM9SvWmRy16ATum4JcnXs+JfQ8WoPdAEh0e6UwLmWwI7o5L8XmtpzQhJ3SmyzG5rieQbqH6yytptVOeeWokbtXefcHHRQfcVpWKhWOA29rUfDB3PQEM0bzrmFCXIb7PjWduNBw2tzXEIainNuEUrMN9GVlk9MLiklYBWaCjLb2m5u17g0Tq4UOOfmocR8FV3NW2jnmhTu+hgdEGfZubYCXrTf4+S+RGeSi02uAfC2nUdFYPevPvCOtdkMeC2JOyW0tz6GO7EhvRLaXIV+denDLNxxGkZeAqx1zn2ATnbfs3MtOqXMObcYnVC8hRq89c65912K9K9ywynmoEbA0mHRAAAgAElEQVTtJTSkPNeuMSntoZo76IDYxDn3ega7M8/abgK8brYhTs5zpxU6kRY0LaqS3FlpxbDdedk595HTkP86NCQ9B7NrzrmFTkOzHwFfOud8SkAq7tRgdxZksDt1COxOa9TuLE+Q+wK1O4tMriHwlnNufoLct6H+iHInKe1hCYXcaeice8NpGDtO7lNrp1jutEQH7tTcsfGwMbqytxpYZnJJ6SQrUbvjudMC406C3BrUUV7tnJuNcseP7bFwzs1FufMKhdz5Kkm23DAOzEcnue8Q4qYrISUixB3/Qn9d59zbKbmzgYA7TdGxbnGC3LqwX0Uhd5JSysLc+QL4KAN3IBizsnBnJZoyO5tCvzAWxp3mBNyZn4Y7TtOta7I7KxLkVqPRBG8/vd1ZkCD3TdivQv3COWnsTrEIcWduFu6U2OYClDuvo9kfS+waV/tvQj8NLLLPYf4kw0O1HF15B529vpHhvC5zzq0VkXfRhzstHiAYtC/MIDcbDV+CzoDmZZAtFn9CU5GaAFdnkPMDNugMNq0TvQZd4QddXXwvQ5vF4ilggXHnvFIc2jSwTwJe4pxbLyLvoP1aaXyIhmRBV+vnpZSri6ZAga5ilmsy9Ajq9NdD0/P+2/gN6mgsRFek0+IJ9F7WQ1Ne0mIZujIOGk17K42Qceci59wGEXkbjRhVGu+jDjzoql14UPoEfb5BV45fCdXVQSOaoKvhsYNgBHeiz0ULNJKSFjPRFBuAq5OcixC+RD/MAAE30+J6dBxZgN6ftHgcvcb66IpkWixFVy9B0zXeSSNknwS8wDn3jYi8lVbO8A80cvINcEkGuVloBAz0uYpdUAuhioA7z6HPZlrcQfDS+DUJx1Ya9Qns20zK92nmx9HnMqw/DZagL40D/AXNckiEiNRBufOtiLyJLlqmxb2o47YejW6lxXsEtuZmAh4lQdDMD9AV8NiJQgS/R+15GzT6nxYvEHxa/GcZJpmrCfyqh9BnLC2uRcfjueh5VxqL0ZecQVf6N4Zv9jeUa9+g0VfAQsU5cuTIkSNHjhw5cuTYdFGVfEiOHDly5MiRI0eOHDn+PyN3+nPkyJEjR44cOXLk2MSRO/05cuTIkSNHjhw5cmziyJ3+HDly5MiRI0eOHDk2ceROf44cOXLkyJEjR44cmzhypz9Hjhw5cuTIkSNHjk0c1U6/iJwrIm1EZHMROSF8kIgcKSKDRKS5iFwUqdtNRCZb+Wr7FnYiRKS7iJxi5SNEZEiorqGIXGblXURk++IvsaDNg0VkpIg0EJErkyVKbq9KRH5u5e1FZJcMsieKSC8R6SAiP8ogN1FE9rTyRSLSPFTXT0SOsfIJIrJ5+quJbfM8EWktIn1F5LhI3VEiMkBEWojIhWVqr4eInGzlI0VkcAbZn4tIHRHZQkQOyCB3iIgMN25eEanbUUR2tPJVIlIvVDdcRA6x8uki0jVtmwnnc6mINBaRYSLyg3LoLOFcWovIeVaeJiJbZZA9X0RaiUh/ETk2Une0/d5KRC6oTUfGc+0pIida+SgRGVgOvQltHmr91NjbtVDdVBHZwco/t/0ufN1IETnYymeKSJeU7dUVkZ9ZeUcRmZrhXE8x29xZRM7KIDdZRHaz8qUi0iSlXFsR+bGV9xORcRnavMDsygBv10J1x5o9ai0i59emIwtEpLcfG0XkGBEZkEH2F6IYJyL7ZZD7gYgMFZEmInJppG5nPzaa/jpp9RYLEbncxs+R3q5VuL3BInK4lU8RkR5l0nuhqD8zUESOyiC3t4iMt/KvMsj18WOjcbNfBtmrjTtbi8i0DHKH2/1rKiIXR+p2EZHtQvrDvuAYPzaKyDki0jFtmwnnc6WI1BeRUd6uVRIiMsSPjSLyQxHpvhHaPMHsRDsRybL3TLHttfBjo3FzQqT+avt3vIh8DwpX+o9Fdzgbhm5vHMb+6A6v3YFtInU7AR1EpAGwf4bNmQYBY6y8H7qjmkcXdAv4av0pdSZhH3Q3tLD+SqIdsLOVtweyOHyHoBtlbA6kdqLQLax7WPk4gs12AEag/QtwMOWL9ByLbgw2nO9y5/voJig9+S53isVgdEtzCLiZCBsUD7WdELdC721afA/dZK0rsF2kbgrQxQznEa5wZ+ktAO8cHInuzFcO+Hse1v/fQi/AG5s90J1L0+I49DpGAEMjdQeiG3f1DOkvFUOAUVY+AOVmpbEvujtiV2DbSN0OQCfj5mGRHV7HAv2tfCS6QU8adES3fQflZucM53qY/dsP2DKD3GR063cIuJkGvYHxVt4T3VAsLTx3RqL9GobnTm/Kx52h1hYod+rFHFsN0UWAA2xsHG/nlBb7ors1d0PvcRg7otypCxyctMNrmXCU7Vw6FuVIpTEKtfeg3CzXxkJ+bAzrT4PdgNYi0grYPYPcMNTGgXKzbsyx1Yj4VRPIxh3vV3Xnu9yZivptnpvhDVnHAX2tfDTqF5YEERHgSOfcuoj+SmIM6mcC/ADdfbfSOBjdWLEPsPVGaK8HgV+1O7qjMQAi0gi1HwAT0XGauiIyFtgLdVDPQ8nZSkTORne7PAp9KI5CDXJH0ZXOnwFnoWRqjRqzelb3q7gtn0XkJILB7grUYB8hIk3RAWsq0NbqtgXaicg659zdxdwV0dXVE9EH/BD0gWtt+i+qxDbjIrIPOmFpZu1MBeaKyBfOuT/GyA20c9wcOAl1FHqIyCXOuVp3DzSH8zLUIV0mIp1QJ/USEfkdOqBuHzqfvsDxInKXc+75Iq9xS9PbBt3FbzjQQnSF8G+oozIIOAbd4dH397nFbqUuGh2aghqsK1BuHikiTZ1zT8XI7YBOwOqa3ATgSxE51jl3Y4zcZsAJ6GB/GOoktok8AzugjulQoMrqrrfjtwOc/dYNOE1E/uyce7XI658E7IJOdC5HB18RkVOcc1l2Xy0LbBVuR2Azu8ZxwLciUuWceyBGbhw6QWiF7qw9EmgiImcCfweOAAai3GmLTqquAH5U7K7PInIqyp12pmsQcJSI/MU593QxOhPa6446F8PRQadRqG3PnSkoL0YAdazuOuBwlDvf2G+bAWeIyJ+cc7XuPCki+6K2pqXJ7QD0FJE1zrk/x8gNQZ2RXsApKJ97ichFzrmfxMjVRXeZnQIstpXYBsBlIvJb23a+NtkjUO50s3PdElgnInWccw/GyG2FDnAtgItQu95IRE4H7kfv3QB08tEe6CoilzvnUkdMa2jzh3aN/tkfCBxj9vPfMXI7oXbHj43bAJ+JyHLn3M0xcj3s/IfZ9TQG2ke4sx06oRtDwJ1rnXNpd19NDRHZFrU79a2drYD1InKic+66crdnbf4IHbP8vesFnGL286UidY5HHffmKG9HAw1E5DTn3NUxcm2AMzE/B+3TRnZeVznnVsbInm7X0cqOHwAca3bnmRi5nSnkziTgExFZ4Zy7JUauJ2o3h6JjcFOC8dJzZ1t0MXUcwZj4a5Rz2wFr7LdOwNlmd96orc04iEYUdgm1szX6nB/vnLuhGJ0p2jwXvef+uegJnGrcmVmB9gYAh6J+1Qnoc9ldRC51zmXZMTxLm4eh9rNz6L7W1fkVG1Du+Od1MrBSRFZWAYuAV9Gt7R9Ft0N+DngW3ab4UdTg/A3dwvw1+22N/VsHeBDdEv19++2LhPN9Ed2C/gU7vglwD7ol8lvolsVvWl2V6c+y7XkUn0euY1FIf9rVs6x4B5hv/z5qv/2T5C24l6PbhAvwgP1/pv0WB2ftfAP8C90ifL79thLtz9Xo1tqPof12P+m3dq8Ji9AtwpdaO15/Tdz5iIA7pazW/Af41P4N65+fIDcb+ND+HkVXLx5H720cotwJc9M/AwI8jPLf6/8ceMqOeQp9plajfZNla/Mo5qFbeM+zdr4y/f8pQWcp8LbjFTufhqjT/n6C3CLgDXRre8+dZynkjte1zNp5tEZN6eG587zpaoRuc5/EnWLxKYX2bTF6zVHuPEQhN8PcedLO+zPScedt9Jl+O6I/ye4ssza/seNXAC8BTyTIfUvwTD+CcnOu/fZJguyrwMcE3GmA9kcSdxai48QiCrnzPGrrHkUn5/8g4OZjCTqT4PvAc6ch6bjzAdqvHxCMN4/ZOcUhyp2lqK0Nc8ePjVHuVAJz0X6ZEzqHp9CxvFJ4BvgS+Le1tQHl5pISdC5An40FBL7Kv9F+jYO/5/WB+wjssLfBcXiOwK8Kc3NBgtwH6LgV5s6jFMed2vy2MDdXo8/716jdeQm1A4+iz1GxqIk7T5j+SuHfKHeetvJadIwuhTtx8H6b96uWAy+T7LeVgtco9Ks8r94juN/eJ98AzABewRbNRgCPW/n3wG7OOV/XGFho5R8Dp/s6+20RSq5pwE3hurg/4EaC8NPiSN1pwPlWXgA0Tas3pr06wAornwJcUKrOFG0eDVxp5XeAjinlOgHvWPlKNKSats2ZBOkW/4jU/QmNPrQH3ivTNY4GZlj5TmDnUF0zYIGVzwd+WKY2f2t8q+ZmSrndgd9b+XFgeEq5usByK//QczNU/wG6Gr0LcGek7gGCVKIXynT92wL3WPk+YHwl+JvhfC4CTrTySqAqpdwWwCMhbk4N1bUE5lr5QuDkMp3rLcDexs35G+He1AOWWfkMNMoVrp+NRkp389wM1T2Mrn73A57P0OYJwCVWfh9ok1KuG/C6la9G043Stvk6QQrKXzPIXQIcH+KOpJTbEnjYyncBO4TqWgOzo9wsQ1/eRpCCNDeD3D7ALVb+NzAopVwDYKmVzwLOidTPtXPZE7h1I3B5R+CuEDfHboQ27yFIHXutTDq3Bh6w8t3Adhlkl6PjwSFoRkNaud/bM94a+DCD3DTgt1Z+FhiQUq4R5lcB5wBnReoXmA3c23MzVPcoQdrT02W65zsBf7LyI8CYjcCdv6ORtR7AKxuhvQ6YX4VG4Y/ZCG3+BPOrPDdDdfsDv7Hy80A/5xx1LcQ6hSBEsBUaEtmAzhx2RMNfPtVmuYgsR2eIu6POzvkEqR1JYbLWZsAmoQP7BIIQxFWowz8Z+MJ+awecJyK3Oedm1aY3DqIvsu1EEOoZj4avjnQxYbJSIPpyhX/B2ad2nC4id7qYMJmF53ckSMPZEegrIp8556bHyA1F80z7ACej6QA97Tx+i050tkRnfHsDTU3/xc65L4u8xiNR7nQNpXY4EfkWncyFuePTjpY75/5QZHs+xLoNarAmhfT/zDm3Kkb2NDsHHyIfBBwtIn9wzj0XI7cTmi4RTQs6Al213QdNwToTDfl3Ek2Nm46GWEegqR0NCFLWznOFudtZ7sGJdh09TdcI4DARqeuce7IYncVCROqjTpVP7eiG9vtlInKDc67WlSzRl+emEKQFbYmmCzh0MrcjQfh8e2CpiKx0MalxCefaFnW6J5r+KQTcucI592kxehPa3AW9Ds+dicBqEfkIXaneGw0Dn43ysYNoatxf0QUDn9oRTguKTY0T/dDCJPReXoFy8ywRucM593aM3PfRVCCfFjQFDU+vds7dEyM3HB1cegKn2r89ReQ859wlMXINgJ9amwstJaEBcLmIXO+cqzUCKfrS7vYEaUFjga8trN0UveeNQ9exWERWOef+VJvOOIhIO+B0dNyoj9oDz83LnXOfxcieiY6bPrWjP3Cc2Z1ao3Misqu1E00L+ghdydsTTYX9EZrG0UZEznTOXVXMNSZBNK1yOwJbPww4XEQauMqkxvm0ytFonjQE9/ACp+8VFKP3WJQ7PUzXGNTXqHLOzYiR2wZNl2hKYVrQSc65a2PkOqALRVujC4+7EnDzMudcrZEZswXbon7VFejk/3jzIWqNsIi+UD+VwK+ahKYFLUMXAfZAF/5+TJDOfTq6gHQEQTp3MzSdu9TUuFOxVDQ7n6FoSm5DF5MaV0J73YDjCdK5qwjSuX/i9L2Ccrc5DbVl3q/aEZhvfttdFWjPp1V6v6ojQTr3TWgu/7YUpnOfICJ3VqGrlKvRdJCXTfBJNBS9AA3vzLG6OmiYczY6q5iHhmdfRkNPr6GhszisteMboKseK9AVi5et7hU0VPyitbvC6koJWy5Gw1PzTZeY/qQwcil4DQ19z0RX+dcQpDXFYR6a3vAheq710Rn+vAS5T6xNseO/QvviNWv7ZdTZecKO9fpLebH0fZQ775CeO7Xm+KaA505DNGy3MqQ/aRB424553Y5vit6L5Qlyi1GOz6OQOx+g1/c+GvafCawz/W+iYWPfzmN2zPv2WykvFL2L9udbpqu56S8lZahYfGvnUBddSfgITb14GQ2txuF99B7FcWc2AXeepzzcaYRyJ8zNsg8ChkV8lzsvEHDnA/RZ9Nx5De3X1XZ8M7RvPwdm2W9JqXGv2jEz0Xv8uZWTJjVz7Fw+ILA7z5CcvrIK5fsGtI/W2P+T8n89d+qhaQ/L0H5Pw51ZfJc7T6DcmY/aBc8dz81SuPM1AXeeiuhP4s5bBHYhrCPJ7iykkDtVKHc+NNnZ6L33tu91a6tS8GPYmwTcfJzS0j7i8CWB/Xwc5W857Ocs0/02heNAUtrHMpRfi03uG9RXeTdBzo+9jVD7FuZOUmrxWwR+1SsE496KBLmFKEe8X+XHXs+dsF/lufk2aivC93w1OsFMSidKwjvoM/QGhXZtY3GnXGNvHOah9tP3rffb5laoPW8/q9C+DXPzC/Q5XY+OB6/Y+ai/bUv/FxKECFYCdUIhggOAG6z8ItA3VDcKeNTKdwK7ZghLLEGN9f7AjZG6J9DIQXXaURnCILsDd1j5cWDkRgi9PICuDm0OvJhB7lh09RH0oUubFtQFeMvKV6Fvy4frVxlJjkZXxstxjT/FUi+8/lDdQcB1Vp4J9ClTmx+hRvQA4PoMcregX+FpjqUdpZTbE7jdyk8SSgtCV/efs/JvgX1DdfWAj618BrrCX47r/xX6knBdLGXtv/mHDkrdCaUdpZS7hCAt6JMIdw4Bfm3lV4CeZTrXj9EFh4PQlx4rfW/2Bn5n5aeBIaG6wcC/Q9zcJ1RXnyAt6GwiaUEJbf4TXf0eCDybQe4kNPIHOnilTQvqAbwa4uahGdp8E41KTgHuziB3GUFa0CeE0oLQyNovrfw60L1MfbncnulDPTdTyt2Orq5Wpx2llJsG3GzlZwmlBaErtE9Z+VZgr0ry2Nq5Dn3Zuz7w0UZoT4CVIW5eVCa9V6BRWAFWZZCbANxv5XvIlha0AnW+fwBcnUHuTjQtqB3wQQa5/TC/Cp309g/VjQCesPLvgT1CdY0J0oLOA84s0z3/Dfolv0ZYylqFuVMV4s6pwIUboc1qvwqd6HTeCG2+hGZ3TADui9T9EY1OVacdOeeqPxv1HjBP9LNxt7vCT38tRXOwQF8ECH8ZYA3wFyu/RLaXbac75760cOU/I3VPois2HUP6S8UK1An3+ueVSW8cnkFn142BLCktCwhWph4keVXIQ9ABBnSV4PXqCv001y3OuW9FZCHle3nxPWC2hZtudYWpB2Hu/ItC7pSCPzvn1ohIWH8avIw6GfVRBz0tlhNw5wkK79169OECdU7DK5yN0HdXIFiZKwfesLYaocb0v41/ohOxtujLjWnxLvC+pQndHOHOEoL79QjKpZIgmv/xR+fcWuPOv0rVmQLL0ZcPQRcbwilP6wD/RR3PTY8wdz5EJytp8TRqP1qi70qkxTwCG34f6fnqgDus7LmZFg+jK34d0RzctHgHeNfShH7rbJQz+OgcBNwsCaJfR7vTObdeRBaji2NpMRNdSa2LTu7SYhl6f0BXRsMpT2sp5E4lV/k9Xkcn+GFuVhINgZusPI/SPuYRxjvo/QrrT4PVqLMP6kinSjc27vzeOfeNcSfLCvdLKHfqAL/LILeMwK96FI06enyNvgcT1u8RvifvR+RKwasofxqycbgT5ugckj8uUw4sJLDvD5HNZheLGehY2YyAmx4vomNsFbowANjqSI4cOXLkyJEjR44cOTZdlGtzphw5cuTIkSNHjhw5cvyPInf6c+TIkSNHjhw5cuTYxJE7/Tly5MiRI0eOHDlybOLInf4cOXLkyJEjR44cOTZx5E5/jhw5cuTIkSNHjhybOHKnP0eOHDly5MiRI0eOTRzVTr+IHCIirUSki20pnAoispWIjLbyyfYt7DRyHURkfyvvIiKbZ2jzeBGpJyL9RGRqBrkdRKS/iNQVkRPTypUCETnZ/h0lIuMzyO0jIl1FpKWIHJZBbphtGY6IHCEiTTOfdEaIyKF2nl1FZJ+N0F5HEdnPyruKSJ8MsidY//cXkR0zyO1ofKsnIidkkOsjIrtYeX/blr1kiMjRItJIRHrbtuvl0Dk8xJ2jRKRJSrmmInK4lSeLyLAMbR4mIi1EpJuI7J1BbryIjLTyqRnkOorIvlbeTUR6p5UtFiIyVUT6ikh9ETk+g9zmIrKzlQ8QkfYp5URETrLyFiKyVYY2p4lIZxFpLSKHZJAbISITrHy0iDROKddcRH5g5W1FZGiGNn8gIs2MO3ullasERKShiBxj5QkiMipSf5L1yyARmZJB787GgwYiclwGub5+bDTutEsrWyxEZF8R6SQibUTk4DLp7CEiu1t5moh0KZPew81udReRPTPIbSMiw62cxe508WOjiOwhIj0yyJ5s3BksIttnkNvFxp9qbobqxonImJD+sC/Yz4+NInKQiLRN2V5dPzaKyJYismWGc93PbHNbETkwrVyCzl5+bDRudi6T3iNEpImI9BSRPcqhc2MivNJ/AbrJymhg1ww69gP6i27OdJ5L/+H/oYA31MejO86lxUXOufXoDqATM8gdBXQGOqE78lUUItIa3UkQdFfX4RnET0O3ke6H7mSXFjsDY6x8GclbfZcDF6Lbko8BdtkI7Q1Dd7gEOAHdFCoRIiIodzYA26G72KXF0ShvOls5LSYAk618LroxWDlwKbq50wT0WsqBXdFdtr3+tNzpje5wC7qTbo8MbV6EcmcLlLtp8X2gr+jmTOdkkBuB7s4N+my2ziBbLI5Fd0XsAhyZQW4bYJKVz0V3g02D9oB3EPcChmRo80x0Y5uBwL4Z5HYj4M5lKDfToA+6yyvoLtPdM7R5McqdLYGdMshVAt3Q3VbBuOkrRDe99GPjFCD1JAzlTnt01+IjMshNQvkDurNqnQyyxeIsdPOlQehuwuXAVug9g4Cb5cAlwAZgHJB68Qflam/RBZEzMsiNIvCrTkE3zkuE+VU/Nu7siJ5vWhyH+lXdgMMjddOAgcbNn0Q2Rgz7VeeTPiOkI8HY+D2UB2lxDjo2DjbZcmBrwE+Szka5WQ74sXErYIcy6dxoqLLZ0DTUsEwBpgKt/ApTbRBdZZyGknkAarDX2Wy8RYLs9ugD0MJ09ANGiciABLlBtvrkTG4S0FlEtk2Qa23HDwRGYk60nWu5nLBom6OBg4Fvre2xQC8RiX1obZVtGtATJdWeQCNJWAW1lYBpKNF7iq5mNgJ2lzKtLtfQZm9rsy3Km6lA6yTulNjmFHRi0dLa7guMFpH+CXKDgUOBDSa3DcqdyQlynjsD+C53Yp0wW6HaDuhkOjYDJohIFscmqrO/aISsPrC36W+fZfWwBp1Vdn7jUO7shxrIPSRhdVl0dXcfoKHpGAoMkYTVfluBmoY63TuhA1prEYl13kSkscmNRJ/nHwBrrT+aJcjugHKnlenYHBgjIv3i5IqF6IrnNKA/aif3159TcWcPdLLoudMVmCgi3RLkxmATMJPbAugjImMT5Lra8T2A8eikurEkrKCLSJ0Qd3oZN+sBe0nC6rKITEQ57MeSIaTjzuZ2fAu0P3cA2kiGqG85IRpJ2ReoZ+c1AhggGt0dgo6N31jdRKCrWEQtRmfbEHdGo4trVcadugmye6Lc8WNJF2CSiGxW0oXW3t5m1k53dBFid6CJZFhBr0XvrqhP0j7Eza1FpGcJOvva2NgMnajuALSVhKivaFRgGrpwN5hCfyc2mm683Am1b9PQie5YSchuEI16HQasN7nxwGb23MTJtQv5VaNRbta1c21idaNRboWvo6X12STAZ3x0AiYnccfsywEYR9EFwM1FZIsEuW52fDf02dgdaColrqAbd7YHOoS4WS7uNEHt4/ZAOxtX/t+gCmiODtRrgF4oETagnRCHunZ8d9TIjwI+t9+SHOmuqBO13o7vhN7IpNlvK5Ssn5pcHzQ6kRS2aWDHd0WdmWHAl/ZbpVZA2qHG37fTE71nSQ54E3TltIXpGIxum52GrL3srwq9T5/Z/8u1OhJFc9QI+mv03KnI4GLoijp7GyjkTuxEE+XOKIJ74g1uEncaEnCnEfqsfEVwn+PQ3dpx6L0R9N6UknLVksJnwOvvWoJOCLhTJ6I/iTudUGftazu+G/r8t0mQa44+H6tNrh+6apvEHW93fDthHVntTgd08E/iTrHw3OkCNKbQzqbhjl8tHoD2cTeSudOeQvuWxe70sfPsiD5j60iO2gjftTufkJ473r71Qvu+Aem4M5Ls3KkUOlDYt35MbItey0iCsbE3es/S2p3OaJ8MCelPSqHtQWDfBqG2sjul2Z04NLH2GqB9mpY7SeiG9u23pr8Rys3YyX0CWlA4DqTlTj1qtzuxkzDU7vS3dnqhvGhJst3x3PHteO50SpALc6cJyh0/ZkX9tjA366N95tNlBxP0Y1KqZ3sKx0avPymDownaB3VRO1ku7nj7+a39Wx+9H6VyJzw2/rftTnGwbJzBwNNWvgXY2zlHmj9gLnoz9gR+l0HuWnRFqh7wUQa5HYG7rPwQMDalnACrrHwCcHHaNov9Q1chf2Hl14HNUsq1Bd638iXA8RnafB4l4zjgwY1wjcOAJ6x8G7DHRmjzenTFvT6wNIPcTsAfrfwIMCalXBWw0sonAT/N0Oa9aFShJ/Byma5/AvAPK98DTC6T3hfRwXVr4P4Mcj8Bfmjl5UDdlHIjgMes/HtgtwxtLkIHjGnATRnkfoOumjYCFleCnzVwZ7mVTwUuyCB7n/UV7NYAABnXSURBVPV1b+ClDHJHA1dY+R2gY0q5TsDbVr4SOCpDmzPRgbCamynlLgROsfIKoE5KuVHADCvfCexS6b5MOJ8z0DSMam6G6nYHbrfy48DwlDrrAh9b+TTg/Azn8wAaKd4ceGEjXH8X4E0rXwUcUSa9d6Gr8Z2At8qkcwvgn1b+EzA1g+xHqFN9AHBdBrlb0KhWc2BeBrk9gVut/CQwNKVctV9l3Dw3Uj8bjbJWczNU9zCaMtcfeC7DuR4PXGLl94G2KeW6Aa9Z+WrgsDL1893oanxX4I0y6dwSeCjMzXLo3Zh/VRYqmgY0sDDIMGCwJLxQFQqxtrOHcioaYk0Kk/nw0kiCtKANKcNkPjwfTu3YIkWYbAjfTe3omhQmKwUWntqWwtSOiSnCZFugaUE+hWksGp5PCpP5EKtPC9oDDbFW7EUTu3/h1A4fns+SQ5ylvaYh7gwkFPqUhJdOjZc7U5jakYY7QynkzkSyhVh9WtB+QB0716K/miUi26GGullYvySkNyXo9NzpgTr8e6Ah1t0T5OpGUjv2Qydie4lI7GqtpTfsQ2Fqx1DRNKw4ub52fCu0P3cgRYhV9IVPn3oxEO1Tz51UL51mhaWpHEbAnQkod2LfJQlxx6cF7UcQno9d5RVNxwmndnRGUztiX4C08PyBWPoRGp7vK/aRhhg5H54Pp3Y0S8EdnwqzJcqd76NO7t6i70LFyU6iMC1oMMqdLDnEZYEofN/6e9ES2FlE2oumq4VTO3qjqR2xL5DXwJ3xpj/2YxDWZjS1o14a7hQL0Rc2w9wZjXJnVLxkrE5/vwah0eQDvH5JSI1L0DsZfc+lcUj/sCTuiKZV7otGS3ZDncn2kvBireiL6tV+FfrO0zd2HbGRMNE02Z1Qv8pzZ0sR6ZUgNxxdcAxzp7uIbC1BWmUHuwafkjtV9OMq3q8ag/qF9SXFh11E048noX7VNDQis62IxEYlRNOdv0+QFjQK6Fcid/z9Goja+2r9kpAal6B3W5Q7TULcGS4iA4vV+d9AFdo54RBrNzRMl/SCW3MKw8g+fJU2PF9TWlBSh2yGOjnrKAxfJYXJWlNzakdSmKwU9EAfHp/aUQedcSaFydqhRu4LClMu0oTJeqPhq/YUhuYqhWh4Pi13ikU4taMY7gykMKWsKcrjONTGnY4JctHUjmGkD8/HoQtqbPwz4NOOUr0YVguaoiHdJuhg4PX3SJDzqR09UVsyhiD02SBBtjPFcacFOony/eHtTlJ6kw/Pd0cnJuGwedEDQQLaUMjRPqQLzzeiMLUjnDqSNbXjW/Sak+xOB2pOC0qyO02tvYboMzEIWEvyC7lVFNq3YrizloA7Ddk4L2XXBJ96UUVhfzdC7U44taM9+qwm2Z1oWpDnTpLdiXJnGEHKRaXg05vC3EmT2hGHcFplQwrTSEv51HhnAo76lLKG6CJCHKKpHf3RZyvpa0L1KbRvIwjG9qTU4s0IUkh8WlArklNU2lg7NXEnnM7dE/WnvN/mueNTZsN2Jwk9CdKth6DjR0+Ug3HwdsdztAdBalyxiKZzh7lTythbLHf+t2Bhih8DZ1n5Y6BBylDHUOApK98K7JUhTDIffZD2IVta0HXoqkJ9sqUF7QT82cqPkDItqMRQ0L3oqlsP4NUMckcQpAW9Sfq0oPbALCtfBhy3Ea7xfOB0K6dO7SixzYWoszEN+G0Gud+gs/5GZEsL2oUgLWgGMDqlXDgt6BTgwjJd/1Xol6iqsJS1MujsBLxr5SuBYzLIvoQa/AnAfRnkLiRIC1pJttSOR618J7BrhjaXoAPafsCNleBnpL3dgDus/BgwMqVcHWCFlU8jW1rQ/ejq3ubAixnkjiVIC3qP9GlBXbDUC+PmkRnafAUdQCcBf88g91PgZCuvSsudCvbz0+h4ONpzM1R3C/pFkqbAggw69yRIC3qS4tKCzkC/HFTp6z8euNTK7wPtyqR3JeqoHQtcXiadlwAnhrgjKeW2JEgLuotsaUHLUGf0IODaDHK3olGtlmRLC9ob86uMm0NCdYOBZ8LcDNXVB5ZZ+WwiaUEJbf4TzUwYSLa0oJOwdGs07ahNGfpYgE+sfILnZhn0XoalW6PvLqXizv/Sn58xrwXeEf1805vOubWkQ0PgP1b+HJiTUg5grnPuM+ucVzPIfQF8iM6unsogVwd42corUcex0vgEndw0BZ7NIPct8IaVl6IGIw2aA/+28hpgVoY2i8XXwLsWNnvN6ecwK40PnXNfWPm1DHKeOy3RQTQtqijkzqKUci1Qgwv6Mt3bGdqMw1fowNqMoL9LRVhXVu4sQ3laD50ApIXnTn30fYdvUso1AF6w8mfoe0WJsPSGWc65L1G7k4U7xaIO6tiC5qyn5U5LAu6sB97K0OYqYAG6yvZcBrlv0EUGgMXoJD4NmgLPWNlzMy1K4c57op9sfTEDdyqF5eg9C3PTYzXqzLQk25gVHhtXmP40CLezjvLZnThsIODoItROlgRL2fyPUw/rG7I9A3Hw3Gkc0p8G9dH3nkBX/OelETK/6i3zqxz6fl9aeL+qOYE9SNUsAXc8Nz0aoe/+QcBNj7BflZU73q9qRDa7E+bOAtR+lYqwTQrrLxVrgFnGzecycOd/BvL/8Jxz5MiRI0eOHDly5MiRAaXkxuXIkSNHjhw5cuTIkeP/AXKnP0eOHDly5MiRI0eOTRy5058jR44cOXLkyJEjxyaO3OnPkSNHjhw5cuTIkWMTR+7058iRI0eOHDly5MixiSN3+nPkyJEjR44cOXLk2MRR7fSLyBgRaSwiLURkRFoFItJTRLpZeZu0W32LSFO/1bKIDBSR9qG6Kr9VvYj0EJEeac+nWIjIZn57a9uuum6oro2IDLbyCBFJ2gE4rHebkP7ekbpxIlLf9A8p03V0FpHNrbyliDQM1bW07d0RkaHh7e7tPMZZuY+IJO1wGm5zCxFpZPqHl+M6ioWI1PFb1Rs3u0fqJ9gx7UVkQAa9/W2b8ioRmZhBrq3f4l1ERopI0k6cYVnPnW7RrddFZCvrs7aem6G6YdYXjURkbNr2Es6llYgMDekvyy6ExXJHRHqJyGZWnpRBrpmIjLTyIBFpG6qLcqdbRHaC9X+HjNwZYHyr4+1aSrl2Ie6MEpGknTjDsrVyJ0FuuI0BjUVki7RyCTorxZ2xItLQ9A8rh85KQUQmiqKjiPTPIDfQuFPXczOlXDsRGWjl1Nyxc5xo5e4i0jNSv7WdSzU3KwkRae3HRuNmKTuPh/WGuTM0UjfE2m3gx8RQXW8/NmaxOwnnUk9Etgrp36xMegdaP2XlTvXYKCKjRaRpSrlY7iTIjhCR5iLSRETGpJVL0FntV0lGvy1B75bGjdY1cGeocaqhiGwZqesjIl2sPKlM55KZO+GV/jvRzVy2Bs7M0O4JwHYiUgX8LcNmBaOBc618GbodtEcH4AYrHw9MyXA+xeIIdOdVgPvQTTQ8dgSOsfJN6M63iTBDe7v99wfA7pFD/or2wRT0OsuBA9DdHwHuoXCr74nAqVb+FRB2iHsBP7fyGSgP0uIP6IYc44HTM55vudEJuN7KJwDbR+r/jm5+tidwWAa9F6Lbi3cEbswgNxXdPRfgZlJuL26D263238PRnV3D+Jv9uyNwXKTuOoItwy/JcK5x2AY42crXoFuQlwN/Rjc02gb4YQa5k4FtRCfnd2eQGwucZeWfAX1DdV3QawPdJXLbiOy9zrlv0d0uD8nQ5kXoLpidCOxaGuyM2iXQnTPbpBESnczfbP890vSkxfXoeQ4BLs4gF4dtgROtfB16n8uBu9BNvSYR2LX/OYiIEIyN+6C7sqbFxegOp10I7Foa7IqOOaB2JK2z3Bb4rZWPRneyD+NedGzcmcCuVRLbEYyNnpvlwN3ozsXbEtg1j6vRsbEvaiPCOA3YWnRTuLvKdC7d0PEYlMfblEnvpUB/1FZfk3BsGLsTjI23o5tMpkF7grHxWHRsSoubgHbAcOCCDHJxmGLnAfAbdOwuB/6K+lXbE9g1j1+h/dkPuCJSdwawlYg0Av5YpnPpAfzCyqejPlgsqmwmOAq9IT2BLQAnCSvPNsMYhTrrzYHJwBe2qtAoQXYAuqW1Mx29gLa2CtLTdK2xuoFAU6nQar+tvo1CB+UmNmv6Fhhus86hwCigrh23GdBJRGIHYNEV5u2AL0P6G4muUHYUkdHoJGuQ6a/yKzNFXodYO0OtndHornT9bQY9GBhj7YxCjVp76/8+wARgndX1A1okzRpD3GmP9uEW9vvgOLlKQXRFcxvg6xA3m9qqQ2fRVdZ1wEhgBFBPRPol6GxiuvqgA+IkrE9Fd1qMkx2G9q1/VroCnVNyZ1sKudM4xJ0xqKM8hIA7A0RXy0ehRqcTOnFbJxkid7Wcz2C0b+uEuNNBRNqVoLO96WoL9Ea5mcgd0eiG79sW6DO22vqjYYLsQNTuYDp6Au1EV+5r4k4z404X0ZXztVY3HO3TvjW3VN2ej2b2JuDOVxm4M5Lvcqd1glwPlDtfRbgTu+pmq1Nh7mwFrC8Dd4agCzx1Qvo7SCjCUoROz53WqGPmuVPxleessJW9SQTj2XCgfhHc2YaAO7FpuaIRsxHWzih0wtAlJXcmE3BnEDom9hSRTqIrl1V2DaPQPk0dtcgK484YgrG3G9CxRO50MF0t0HFujP4sg0QjXKNQR6oj6kCtFY3QNrC6/ugEanvgc+uPBiWcT290MW5tSH9ziUQZM+psJoFf1d70rymSO52BrpIQnTP7MomA5547PRLkWkvgV3VG7c4G+b/mzjzIiuoK479mGYZBRFkGBgIMwxaWIAgimNWUNYGgRBKjklBEJFoE0QkkRTC4gRrjViQEY5FSiFIqvojWCBlWg44IZGGJBFkkKAGHTTbZ49L545yed1/Pm77dr/tZuVWv5lafPuduX9977j1fT8dkDDjZ/bYksOP5Vb2Qec1xJKLiYaczdbFTaPhVF5G5ZsXBTjdkbE2/7UKb3wYC3krkc88p4B1gA/CE67rU90Mm3BTy6eWlwGtAjV7rZNF9GPnc+2a9/zyy8x6F7HTXIp+GTiGfH18KTAyymesPcbxTyOfgVwLLgUN6rQdy6rELWI/s8M6q7OsWuxOAN4E9ev8BtT8F2UlXad+lgHfV/qMx2tFAbX0ArAb+jHzOOoVsBGYD25FP3Xt9nkJ243fq9e167QSwGLjJUmY5EhU5oXrbgH8Av8vHWIXog8nI58V3+bA5AbhR+/+gyt7X8Zlpsdld7z+DRE5MbDaz6D6l965T3TOq9zWL3k+0bu/7sPlTJEKx1MDOLrX/COKYm2O7Cfn8+IKY/ToH2JEFO+UxbA5TjHnY8bA526LXRu8/qhhfrZhPAR0suo8hn5Xf5GvHSOSUZL0+i579KiTCN1r7/4DK9uj43Gcpr6fefxaZO0xsNrXoPq3YWYtEdU6r3lcserchn59/T+8/BKwAKix6Q5A52OuTzcgc/WxM7Dyh2Pmbr8+vimFzuGLnuNrysPmbOHXNxw/4IbAK2K91/Q9QDdxr0fui3n9OsWNis4lFdz6wG3gLOZn3sHOFRW+S6pjYWY6chH8PWAYcVtluxeZDeey7J4GdwF8Vm+e07G/GsDkCWAIcU1s7FZuzEGfXxOgGxB9aiDhyKcXcEuB1YK9eaxujPlO1/J1q65ja/3EMm72NdvxJ+8+zX2DRfUbHfw0SFT+lekMtencoHnbr/YcVL5Msel8m0696W3/zY2JnLmm/6iUDO1fGsHk1mX6Vh83HkQ2GiZ2Nip0XkM2M6Ve9gcwDKaA4Rn2mKXZ2GNhcDNwcqKfKPYF1xoN2Q4SCdyInESOIsEAgIbRxiLN62CebAPxK89vjdEyE+mxEdvjfQEKxpmwh4hyXAFsj2ByDOjGIM1xmyAYDyzT/PDAsoXZUI6d7g4AVPtlTCDXhAmCPTzYVuFPzNVicEkOvN7BG838Arsv3WFnqMxF4wMSmIbsKSGl+CZZF0Gf3KOCY2Aypl9JyvwC8HUFvLOrEeNg0ZEOAKgOb5YasJbBL8zOxTLoR6jMP2XBcBOxOyGZfoNrEZgTd95DTumuBeRH0Zutz2Rg44JPdDszQ/L+Biw1ZObBQ81XAkJDlOcBRzd8G3B+hrouQU/tOwOYIeuOAxzX/T6BjSL3WwE7NP0BCBy2IIzHSxGYCNvsBr5vYTMJuPn7IJuU5zS8HLgup1wA4ovlabIbUfQWJDpQCGyPojUcPn5BNXwdD9lWgUvOLiOFARajPAsS3aA3sSMjmAOA1zT8DXGPIioC9mp8O/Mynuw9ZP78PzE2oPpOBezS/B2iegM1avwqowLLJ9Om+qmPdFfh7BL1bgIc1vxUoCalX61chB8K3JNSvz+uz1xbYlpDNgcBKE5uGrNavAu4BJvt0axAa9A3A7xOqz8+B6QY2Aw8iXdelgeM4JUgY+ZSGuMsQuoAtFNhC7y9GFt++SDjDRglppHrdkAVxIBImK3OEMtQFOeX41LB/oeM4RUF2c00aCitDQqBFCGXirCMvwBWqrBTh/11q1DXwhWUNa/VGQuSe/aaO0EU6AJcgYdQyJCTU2InxkpLaLUPCWIWG/VKlRHhj2wgJaR7Xdnjj0RP4TENGTREKk40uUYJMoB52uiAh30Ds5CtpHXqRxk4bhKbUVHH5JYS+UYY4UgWO5eUeDT/2R07pTWwGckt92GlMPOy0Ryga2bBTimLHkZfhBwEnVNYdodDFoeE0MbDT0LTvWCgqFrs5YceYd1oiHPc+yLwT+OK5zi1lyELWwNcO7xkw551WQEsDO/2oi53Al7IdoXH1N9rYU+0Hcku1TD92TkbATi8kRF6GLKjNHMdpZtErRuYFEzskhJ0uCHYGku7znP9znOM47RHsnPZhJ5EXhJNMWeadjkCTkNipHXdyw06Bz4atrl2QecePnSJ9vvoha2Mia5alLiZ2GpEsdvqTiZ1GjtDb2iCHcf75s1jn165Ac8Qn6Y3QKnJ+P8WR5J93WiCUw0CKtMVuK2R++yhH7HRGsDOA3LHTDqHWBvptjuO0xfABEb8QJx4NpzALdkKtvRa7fuyUUhc7x+vBTq1fRXptTwI73th2BZoh1MlAvw3gLiQ06oUIvBDEGMsOYziyI/RoQduQcNgsi14xmdSLv5CmBbVFwiFe+LwSOKmyAUnsjLLU50okfO5RL7Ygp2NPkg7Pn9F71pGmdtjCZPPJpHZ44auhyAs2mxHqRQoJv75MhJPOLOUNpS61Y6vWo7Ne+0jHzKQdtSaTFlRFOnzV01Lm3UgEw6QFvQr8IB9jFaIPFhrYMbF5CRK+Nakd/9W/wy02x5BJC/Ls32XR60Wa2rGITGpHY4vuHw3smNi8HHhI8bnFh81rkRDrGjJpQSuIcWKLTJwpfQ4ryaQd5XwihbystQGZN0xs3mjRu5rs1I5Aahwy2Xrhc48WtE+vtQFeJE29MGlH/ZCXs7YiERcTO9+ylDkWoXaYtKBq4JcWvT7UpXZ42Glo0X2WNPXCpHYMtuhVUJfasQKYEGOMu6qtUwhVwMSm9UQqwO59pMPnJjZDR6g/rx8SWXonC3YCqXHAjxDKrJ8WNM2i19fAjkft8GhBjkV3gY7/W2RSOwYh9EGPemFic2Se+s2jVZ5SHJvYDBWFrsfuTB2LrT5sXo9EcatJUy/26xhUAN9B5g0/LejXMerSUG3tQ+hCS0jPa31i2L2JTL9qL0Ip+YVFrx+ZtCCPdvRiiDKf02fbTwu61KI3hUy/6kOEFnRrjPb3IO1XvUIm7SiQGmexez9pv8q0fx3CMPDTuVcha/IoMv2qd/W5zJkahxwGmX6bic1egbpqYCrpEEENISdkxLFZq/m5wPURKr0LcThH4qMFaQddgTjd63PtmAh16YhSLxB+1s0+uUntCP2Q6wCUI6f8/8oCoEmaP4JlQg5Z3sUo9QKYAdzhkx9EXgAdA8zxydYgC8ZgfLQgS5nT0IUImSQL8z1elvosQ+gvvT1sGrLZiCPWGDgUwWY5aVpQFRZ+o6FnUjsmAg9GKPMlhBbUCR8tCPlvVxM1f8zEDjLhz9L8ZqBzQv16WPttLPDbhGxOB6Zq/hAhJ2RkcXpD8/OAURHK3IOcpn0XeNonW4GcdvcF3vTJ5iD87ALgYITyhgEvGNi8PAJ2jmn+dqLRgl5GDjNKgU0R9MaTpgVtISQtKITdI8iJ2zgsh0IRbN6NUi88bCZhNx8/5ABpNBKBrYmgN4I0LWgludGCKrC8e+LTrURoQV2BDT7ZowiFo3Ze+xz67gjiHI8HHkvI5r0o9cKzb8hGo9QLxDHrYcgGkqYFLcCgBcWsz2rkBHkAsDohm9egfhWycQl0vg29hsCHmp9CNFrQYuQF1u5EowXV+lXIAWK7hPrgqD4LtwKPJGRzBvp+lNo3sVPrVyGHod0M2WWoX4VskL6dUH2qkfVwILAqjI4XJisBajRcX+C67mnCpfbIJsGfD5NaIQ9cNj3vWoeINnNN9bZDQ8bHXenhkoj1CWpHe6TPWwAn1X7cZJbjb0cBgOu65/0y3/1Rx9HDTiPkATiXW9UTS0Ht8K6VIDvxKDY/8NkIk1ohE4Ontz9imYHtUCrMMR92zHKitjNr0nDhJ67rfoxgLEo7gpKHnQLAVWyGSTnNOxrabe667gkCnsl6bJqyKO2v95m0pDaIMwvST0lhx6bnldOOZLBTBJx3XfcTovddUPKwUwh8rNj8f025YifX9bUY2URDstjxrpnYzFty5P/Dn3Fd91OSxY43fxYB59S+Kdtv3ufXq0cWuz5krjNJ2fTnbakdcjgIufs7UdthYrSYBLBl+FWfkR/sXACctmBnv18vSz6R+hDBV/4fxkGj6aeNEdcAAAAASUVORK5CYII=&quot;&gt;" style="rounded=0;whiteSpace=wrap;html=1;" parent="WIyWlLk6GJQsqaUBKTNV-1" vertex="1">
          <mxGeometry x="-30" y="700" width="820" height="100" as="geometry" />
        </mxCell>
        <mxCell id="HWZ7e_i3OE0l-Ex5s9TC-0" value="&lt;pre id=&quot;line1&quot;&gt;&lt;span&gt;Letter: # # ##   ## ##  ### #    ## # # ###  #  # # ### # # # #  #  #     # # # ##   #  ###  #  # # # #  #  ###  # &lt;/span&gt;&lt;/pre&gt;" style="rounded=0;whiteSpace=wrap;html=1;" vertex="1" parent="WIyWlLk6GJQsqaUBKTNV-1">
          <mxGeometry x="-30" y="810" width="840" height="60" as="geometry" />
        </mxCell>
      </root>
    </mxGraphModel>
  </diagram>
</mxfile>
